HIERARCHY
ROOT hip
{
  OFFSET 0.0 0.0 0.0
  CHANNELS 6 Xposition Yposition Zposition Zrotation Yrotation Xrotation
  JOINT torso
  {
    OFFSET 0.0 0.0 0.0
    CHANNELS 3 Zrotation Xrotation Yrotation
    JOINT neck
    {
      OFFSET -31.42098999999993 328.8025209999999 74.3554680000002
      CHANNELS 3 Zrotation Xrotation Yrotation
      JOINT head
      {
        OFFSET 3.3519900000001144 303.81732099999994 206.53942900000015
        CHANNELS 3 Zrotation Xrotation Yrotation
        End Site
        {
          OFFSET 0.0 0.0 0.0
        }
      }
    }
    JOINT left_collar
    {
      OFFSET -31.42098999999993 328.8025209999999 74.3554680000002
      CHANNELS 3 Zrotation Xrotation Yrotation
      JOINT left_upper_arm
      {
        OFFSET -124.490479 -8.162841999999841 8.226441000000023
        CHANNELS 3 Zrotation Xrotation Yrotation
        JOINT left_forearm
        {
          OFFSET -253.595764 -1.5758060000000569 105.0729980000001
          CHANNELS 3 Zrotation Xrotation Yrotation
          JOINT left_hand
          {
            OFFSET -269.48803699999996 0.1478270000000066 -55.346191999999974
            CHANNELS 3 Zrotation Xrotation Yrotation
            End Site
            {
              OFFSET 0.0 0.0 0.0
            }
          }
        }
      }
    }
    JOINT right_collar
    {
      OFFSET -31.42098999999993 328.8025209999999 74.3554680000002
      CHANNELS 3 Zrotation Xrotation Yrotation
      JOINT right_upper_arm
      {
        OFFSET 162.02484099999998 0.46441600000002836 2.2303470000001653
        CHANNELS 3 Zrotation Xrotation Yrotation
        JOINT right_forearm
        {
          OFFSET 240.01246700000004 -25.835875999999985 121.34179699999959
          CHANNELS 3 Zrotation Xrotation Yrotation
          JOINT right_hand
          {
            OFFSET 252.48539699999992 18.910399999999868 -67.53466800000001
            CHANNELS 3 Zrotation Xrotation Yrotation
            End Site
            {
              OFFSET 0.0 0.0 0.0
            }
          }
        }
      }
    }
  }
}
MOTION
Frames: 19
Frame Time: 0.01
-331.3447701665294 272.1282980970969 666.6837547701773 -3.096600628958788 -2.3185418127463637 60.10493455935555 -0.6729598228996315 3.1098992338995233 0.4335940206448666 3.0680181680703202 -15.010424190717908 -2.132061917397599 0.0 0.0 0.0 1.0125117184022956 0.28147786703364175 -2.874689367497802 48.64822814405576 8.541165935363045 25.975178022191585 41.59310958385189 -5.727799564082211 -8.212538210577716 0.0 0.0 0.0 -1.879541127471122 0.07547230257694675 3.660328627579031 -43.88937007612994 12.929359563166258 -19.05381543239265 -20.409389382832916 -3.5348924304985867 16.933735719555433 0.0 0.0 0.0
-331.50494515195516 272.1082356000619 666.558435353421 -3.079185965445999 -2.3162090060160754 60.102752289433944 -0.6719247319504372 3.1057824898027984 0.43301211594523015 3.070489024641489 -15.032405143256954 -2.1339657892168775 0.0 0.0 0.0 1.013172250928973 0.2821163537464858 -2.8824180706127778 48.64380644291803 8.537546573757632 25.980994789976542 41.589356110757564 -5.725023093973243 -8.218289169432495 0.0 0.0 0.0 -1.8836229679538619 0.07556793516851691 3.653630663710941 -43.98258257445235 13.259081399008862 -18.5247496642781 -20.161107494470752 -3.571719049713772 16.32964812100116 0.0 0.0 0.0
-331.66909233069276 272.0906672534043 666.4269448636178 -3.062016117966378 -2.3126637244324764 60.10070527729222 -0.6710272759113748 3.1018528459867 0.4324746987676391 3.0726227426764936 -15.05652900962621 -2.1356251778030177 0.0 0.0 0.0 1.0139433990756164 0.2827962506673464 -2.8905635197700614 48.63914564993317 8.533382791864383 25.987871438510993 41.58531731333095 -5.722434304307057 -8.223442209696318 0.0 0.0 0.0 -1.8877583801119104 0.07566254730013464 3.646713640950065 -44.09136418226512 13.66704332886961 -17.870222972221136 -19.861881719938264 -3.6141504344877147 15.587512750928251 0.0 0.0 0.0
-331.83720024508557 272.0756703267243 666.2888788508375 -3.045101973100768 -2.307877605264147 60.09875066012856 -0.6702359095511686 3.0981466948230296 0.4319787986469387 3.0745188839129747 -15.082704668345002 -2.1371139465935243 0.0 0.0 0.0 1.0147665395302112 0.2835202035180916 -2.8992325444174334 48.63431506639772 8.528581417706295 25.996037083030696 41.581020221372405 -5.720045907875785 -8.227974740799803 0.0 0.0 0.0 -1.8918898628236396 0.07575306688907076 3.639546947027941 -44.21003292126029 14.150033623746772 -17.094550071695963 -19.51659204085119 -3.6602373204365555 14.712790368211081 0.0 0.0 0.0
-332.00919192380513 272.06326736628836 666.1438718574916 -3.028457284300319 -2.3018543339967894 60.09683018665482 -0.66951922620435 3.094699036458855 0.43152134149528243 3.0762721422613626 -15.110779590211108 -2.138502177899622 0.0 0.0 0.0 1.0155851225646626 0.28428946952376966 -2.908511037122968 48.62938288896845 8.523063857475854 26.005689359584053 41.57650064958344 -5.717869702290082 -8.231869929415684 0.0 0.0 0.0 -1.8959610263087294 0.07583665117958326 3.6321122929911445 -44.33163279713812 14.70156345418878 -16.206856189680263 -19.13278383374161 -3.707736233224989 13.716556422613538 0.0 0.0 0.0
-332.1849176202309 272.0534247331599 665.9916049544844 -3.012097895148847 -2.2946302288236424 60.09487013444587 -0.668846974272094 3.0915422431247315 0.4310992405800276 3.0779705573790803 -15.14054264949002 -2.139854853731678 0.0 0.0 0.0 1.0163461560887026 0.285103888135858 -2.9184617737494984 48.624414324142336 8.51676871823474 26.016987988910245 41.57180107668123 -5.715916245348201 -8.235116719284175 0.0 0.0 0.0 -1.8999175640514006 0.07591073538013754 3.6244038084370644 -44.4485732959606 15.31194530445989 -15.220954249797684 -18.720326366697485 -3.754381890418054 12.615282755550595 0.0 0.0 0.0
-332.364149658263 272.04605260248684 665.8318120951157 -2.9960409328717654 -2.2862736426023273 60.09278162926737 -0.668191017441185 3.088704694371524 0.43070946478893274 3.0796940799646766 -15.1717287402497 -2.141230801509229 0.0 0.0 0.0 1.017001482483432 0.2859618833541315 -2.929122908480836 48.61946987458441 8.50965401045424 26.030049302139528 41.566968477845116 -5.7141945938289425 -8.237709671777809 0.0 0.0 0.0 -1.9037081117475134 0.07597307317450042 3.616427948257387 -44.55341356298157 15.968630689867796 -14.154919592279281 -18.29082294862512 -3.7981768048683247 11.430213722321257 0.0 0.0 0.0
-332.54657974021745 272.0410064710704 665.6642851843628 -2.980304010239416 -2.2768832751196477 60.09046137243042 -0.6675262018910062 3.0862094151067443 0.43034908876194733 3.0815134681607406 -15.20402510846065 -2.1426818886482573 0.0 0.0 0.0 1.0175088189008303 0.28686049467917174 -2.9405071330516814 48.61460384381782 8.501698871911602 26.044941876436265 41.56205218729001 -5.712712131197435 -8.239648589831397 0.0 0.0 0.0 -1.9072849933477924 0.07602176956535626 3.6082032614562976 -44.63967817639606 16.656801104136925 -13.030386043466786 -17.856823556644013 -3.8376408035536644 10.186372872934369 0.0 0.0 0.0
-332.7318189639527 272.03809016561337 665.4888778050062 -2.964904466549124 -2.266585523745279 60.087792778174204 -0.6668310998739002 3.0840728355691245 0.4300153295080944 3.0834894848242356 -15.237079235444321 -2.144252442929118 0.0 0.0 0.0 1.0178325482189323 0.2877954336636218 -2.9526014693808023 48.60986309248017 8.492904765752266 26.06168339926613 41.55710186521772 -5.7114744940731175 -8.240937927384532 0.0 0.0 0.0 -1.9106048642300117 0.07605530654441128 3.599760038992073 -44.702576506662645 17.360161627505324 -11.871621831508136 -17.430927775586508 -3.871968018386554 8.911294421783689 0.0 0.0 0.0
-332.9194006690151 272.0370602842589 665.3055075863473 -2.949858668603066 -2.2555310163470588 60.0846475178567 -0.6660886090502847 3.0823037627886087 0.42970557341837956 3.085672363360871 -15.270508041386984 -2.1459788741255643 0.0 0.0 0.0 1.0179442581282667 0.28876116358575526 -2.9653676613030093 48.60528607539834 8.48329610906431 26.080238870727225 41.55216564014006 -5.710485589728129 -8.241586030929492 0.0 0.0 0.0 -1.9136292615858497 0.07607256169482166 3.591139825881628 -44.739511613841344 18.061846209647147 -10.704471273931416 -17.024887280412386 -3.9010584288352277 7.633620435525531 0.0 0.0 0.0
-333.10878609823175 272.0376319466938 665.1141572402539 -2.9351813843457335 -2.2438904747055983 60.08088745908411 -0.6652863966839342 3.080902618568616 0.4294173963925513 3.0881015123601383 -15.303908123866064 -2.147889474396348 0.0 0.0 0.0 1.0178230294522186 0.2897510006051984 -2.9787431400454762 48.60090218921635 8.472920286994771 26.10052025604705 41.54728849625437 -5.709747681567837 -8.241604299224756 0.0 0.0 0.0 -1.9163250643104555 0.07607281925297193 3.5823947628575135 -44.75030507363302 18.7453203967131 -9.555262133753068 -16.648815961270127 -3.9254197201251104 6.381726331305954 0.0 0.0 0.0
-333.29937273311316 272.0394856769015 664.9148743155259 -2.9208852385944652 -2.23185005984388 60.07636697529014 -0.6644171828113363 3.079860971612821 0.4291485783242095 3.090805433311792 -15.336866707204386 -2.1500043780768547 0.0 0.0 0.0 1.0174554757941796 0.29075723542608056 -2.992642548292409 48.59673145561282 8.46184700922293 26.122387693857593 41.54251097574468 -5.709261510113636 -8.241006372097567 0.0 0.0 0.0 -1.9186648547975123 0.07605577273450634 3.573586720206813 -44.73711963504156 19.395169479684586 -8.449775924122102 -16.310593544973056 -3.945964310844735 5.182526957197055 0.0 0.0 0.0
-333.4905050464101 272.04227519875064 664.7077697314647 -2.906980263741837 -2.2196063606019987 60.0709355859432 -0.6634788544751354 3.0791613786286383 0.4288971116547753 3.0938018295792555 -15.368972952899263 -2.152335664501966 0.0 0.0 0.0 1.0168355391683372 0.2917712749925516 -3.0069598137575477 48.59278455034036 8.450166974770562 26.145652339072875 41.53786826283159 -5.709026413978521 -8.239807466280519 0.0 0.0 0.0 -1.9206271690420191 0.0760215182145419 3.564786199566149 -44.704116101520164 19.997687234706188 -7.412360194742184 -16.015514929674342 -3.963747890697484 4.060575959777052 0.0 0.0 0.0
-333.68148731709687 272.0456358893274 664.4930151498346 -2.8934735673009224 -2.2073612044343762 60.06444087078843 -0.6624743954875674 3.07877755065387 0.42866120235584093 3.0970978882514637 -15.399829267962948 -2.154887590100373 0.0 0.0 0.0 1.0159640516763595 0.29278380412759886 -3.0215707639776856 48.58906316703863 8.43798982756567 26.170080874018904 41.53338970489965 -5.709040417076017 -8.238023967537202 0.0 0.0 0.0 -1.922196621963953 0.07597053778097271 3.5560710026985447 -44.65691992470222 20.54122368572653 -6.4652325945323765 -15.766205699979755 -3.979705672491251 3.0375132007306807 0.0 0.0 0.0
-333.8715980718388 272.04919361008706 664.270839242761 -2.880369148300063 -2.195316487264762 60.056731583687935 -0.6614116083684767 3.0786748676332927 0.4284392608019667 3.100690719738075 -15.429062246291519 -2.157656938400141 0.0 0.0 0.0 1.0148480811325518 0.2937849668135701 -3.036336263306247 48.58556068345218 8.425441410035377 26.195401658337683 41.529098804968974 -5.709300253908725 -8.235673365859233 0.0 0.0 0.0 -1.9233639005839873 0.07590367340313435 3.5475246940642333 -44.60198924941922 21.01629650303962 -5.627993064621074 -15.562803904289401 -3.994441212332733 2.1318526965315097 0.0 0.0 0.0
-334.0601056511174 272.05257362264956 664.0415229239768 -2.8676678991448354 -2.183669225079288 60.047660873402734 -0.6603026044515523 3.078811263385822 0.4282298798322755 3.104567943107305 -15.456332887992005 -2.160633478846496 0.0 0.0 0.0 1.0135000893745334 0.2947645654912259 -3.051105823055516 48.58226307908969 8.412660358013929 26.221312402554524 41.525013690805835 -5.709801314094218 -8.232774585251342 0.0 0.0 0.0 -1.9241256258483703 0.07582209227516978 3.539234911451021 -44.54597055182251 21.41550789045483 -4.917329899441509 -15.403398622894647 -4.008112502935356 1.3590490259133812 0.0 0.0 0.0
-334.2462843491742 272.0554092951388 663.8053936361601 -2.855367823635286 -2.1726070148764802 60.03708950257056 -0.6591630492956959 3.079138485762669 0.42803179798582514 3.108708407792165 -15.481345762661318 -2.16380052716711 0.0 0.0 0.0 1.0119369466528862 0.29571227452144583 -3.065721587811399 48.579150037855946 8.39979412659273 26.247489144026964 41.52114802965203 -5.710537499231172 -8.22934871454545 0.0 0.0 0.0 -1.9244840930812954 0.07572724544997683 3.531291600552649 -44.49510786000951 21.733330341583642 -4.346883242370971 -15.284705288021268 -4.020442342821133 0.7317413719303222 0.0 0.0 0.0
-334.429430550754 272.05735031788754 663.5628188220094 -2.8434644860070786 -2.1623040573214896 60.024888946274615 -0.6580111713089338 3.0796037047846148 0.42784384715295953 3.113083043566245 -15.50385681501287 -2.167135600814601 0.0 0.0 0.0 1.0101788618699432 0.2966178616162721 -3.080022548386929 48.576196159415396 8.38699458604904 26.27359619372836 41.51751231426093 -5.711500997390604 -8.22542009715897 0.0 0.0 0.0 -1.924446910736027 0.07562082216658292 3.5237852594187844 -44.45474633181535 21.965829747702035 -3.9272187983018476 -15.202929292177798 -4.03085394390809 0.2600561972189652 0.0 0.0 0.0
-334.60887829073897 272.0580701753612 663.3141987403513 -2.831951685169961 -2.1529178470951695 60.01094425167453 -0.6568665652248319 3.0801514054903394 0.42766488534124797 3.1176558302145243 -15.523679555830714 -2.1706111624964937 0.0 0.0 0.0 1.0082483003731155 0.2974714094284472 -3.093848793435108 48.57337220453366 8.374413367986138 26.2992966352572 41.514115400879064 -5.712681990553481 -8.221017693967076 0.0 0.0 0.0 -1.9240265650827093 0.07550470254453397 3.5168052739548967 -44.428948553998595 22.110387053644878 -3.665864476822898 -15.154715246034703 -4.03869884816813 -0.04814482071815334 0.0 0.0 0.0
